<svg xmlns="http://www.w3.org/2000/svg" viewBox="0 0 333333 333333" shape-rendering="geometricPrecision" text-rendering="geometricPrecision" image-rendering="optimizeQuality" fill-rule="evenodd" clip-rule="evenodd"><path d="M302077 0H31255C14069 0 1 14068 1 31256v270822c0 17186 14068 31254 31254 31254h270822c17186 0 31254-14068 31254-31254l2-270824C333333 14068 319265 0 302079 0h-2zM166667 267498c-55606 0-100832-45219-100832-100832 0-55612 45211-100831 100832-100831 55605 0 100832 45211 100832 100831 0 55621-45219 100832-100832 100832zm85037-87040c-2948-946-26673-7991-53644-3669 11265 30954 15832 56164 16741 61407 19296-13070 33085-33755 36904-57738h-1zm-51397 65614c-1299-7566-6263-33878-18348-65300-201 78-391 115-554 201-48598 16937-66056 50619-67582 53767 14611 11380 32974 18202 52863 18202 11939 0 23321-2445 33640-6855l-19-15h1zm-97646-21704c1969-3354 25602-42461 69991-56830 1109-350 2244-704 3391-1020-2166-4890-4526-9802-6970-14608-42967 12881-84721 12326-88502 12289-41 872-41 1739-41 2635 0 22092 8396 42297 22132 57548v-15zm-20279-75231c3860 37 39349 196 79644-10476-14251-25370-29657-46707-31939-49822-24109 11377-42148 33603-47693 60299h-12zm64122-66082c2367 3186 18035 24504 32141 50414 30641-11459 43596-28918 45137-31121-15203-13510-35215-21704-57109-21704-6930 37-13715 870-20163 2404l-4 7h-1zm86853 29300c-1817 2441-16275 20960-48099 33957 2002 4093 3941 8270 5709 12491 629 1499 1261 2947 1853 4447 28671-3576 57146 2170 59985 2758-201-20317-7489-38996-19461-53644l11-7 2-1z" fill="#ea4c89"/></svg>